<?xml version="1.0" encoding="utf-8"?>
<!-- Generator: Adobe Illustrator 16.0.0, SVG Export Plug-In . SVG Version: 6.00 Build 0)  -->
<!DOCTYPE svg PUBLIC "-//W3C//DTD SVG 1.1//EN" "http://www.w3.org/Graphics/SVG/1.1/DTD/svg11.dtd">
<svg version="1.1" id="ZoomIn" xmlns="http://www.w3.org/2000/svg" xmlns:xlink="http://www.w3.org/1999/xlink" x="0px" y="0px"
	 width="25px" height="25px" viewBox="0 0 25 25" enable-background="new 0 0 25 25" xml:space="preserve">
<g>
	<path fill="#2B4C62" d="M21.043,0H3.957C1.775,0,0,1.775,0,3.957v17.086C0,23.224,1.775,25,3.957,25h17.086
		C23.225,25,25,23.224,25,21.043V3.957C25,1.775,23.225,0,21.043,0z"/>
	<path fill="#FFFFFF" d="M23.393,21.043c0,1.296-1.054,2.351-2.35,2.351H3.957c-1.296,0-2.35-1.055-2.35-2.351V3.957
		c0-1.296,1.054-2.35,2.35-2.35h17.086c1.296,0,2.35,1.054,2.35,2.35V21.043z"/>
	<path fill="#2B4C62" d="M18.379,10.932h-4.311V6.621c0-0.866-0.702-1.567-1.567-1.567c-0.866,0-1.568,0.701-1.568,1.567v4.311
		h-4.31c-0.866,0-1.567,0.703-1.567,1.569s0.701,1.565,1.567,1.565h4.31v4.311c0,0.866,0.702,1.567,1.568,1.567
		c0.866,0,1.567-0.701,1.567-1.567v-4.311h4.311c0.865,0,1.566-0.699,1.566-1.565S19.244,10.932,18.379,10.932z"/>
</g>
</svg>
